<?xml version="1.0" encoding="UTF-8"?>
<svg id="Layer_1" data-name="Layer 1" xmlns="http://www.w3.org/2000/svg" viewBox="0 0 543.25 448.74">
  <defs>
    <style>
      .cls-1 {
        stroke-width: 15px;
      }

      .cls-1, .cls-2, .cls-3 {
        fill: none;
        stroke: #231f20;
        stroke-miterlimit: 10;
      }

      .cls-1, .cls-3 {
        stroke-linecap: round;
      }

      .cls-3 {
        stroke-width: 5px;
      }
    </style>
  </defs>
  <g>
    <circle class="cls-1" cx="266.02" cy="54.15" r="46.65"/>
    <line class="cls-3" x1="2.5" y1="446.24" x2="540.75" y2="446.24"/>
    <path class="cls-1" d="M131.4,131.81h122.32c6.79,0,12.3,5.51,12.3,12.3v139.15c0,7.21,5.84,13.05,13.05,13.05h105.3c5.68,0,10.62,3.89,11.96,9.41l29,119.49"/>
    <line class="cls-1" x1="290.5" y1="134.51" x2="455.53" y2="131.81"/>
    <line class="cls-1" x1="240.88" y1="296.31" x2="22.99" y2="427.9"/>
  </g>
  <g>
    <circle class="cls-2" cx="266.02" cy="54.15" r="46.65"/>
    <line class="cls-2" x1="2.5" y1="446.24" x2="540.75" y2="446.24"/>
    <path class="cls-2" d="M131.4,131.81h122.32c6.79,0,12.3,5.51,12.3,12.3v139.15c0,7.21,5.84,13.05,13.05,13.05h105.3c5.68,0,10.62,3.89,11.96,9.41l29,119.49"/>
    <line class="cls-2" x1="290.5" y1="134.51" x2="455.53" y2="131.81"/>
    <line class="cls-2" x1="240.88" y1="296.31" x2="22.99" y2="427.9"/>
  </g>
</svg>