<?xml version="1.0" encoding="UTF-8"?>
<svg id="Layer_1" data-name="Layer 1" xmlns="http://www.w3.org/2000/svg" viewBox="0 0 372.59 304.02">
  <defs>
    <style>
      .cls-1, .cls-2 {
        stroke-miterlimit: 10;
      }

      .cls-1, .cls-2, .cls-3 {
        fill: none;
        stroke: #231f20;
      }

      .cls-1, .cls-3 {
        stroke-linecap: round;
        stroke-width: 15px;
      }

      .cls-3 {
        stroke-linejoin: round;
      }
    </style>
  </defs>
  <g>
    <path class="cls-3" d="M302.51,125.04s-2.89,24.35-12.52,56.06c-11.4,37.56-32.25,85.44-68.94,115.42,0,0-49.14-111.85-93.82-121.32-17.8-3.78-119.73,121.32-119.73,121.32"/>
    <polyline class="cls-1" points="296.18 158.25 363.89 110.36 348.59 58.12"/>
    <path class="cls-2" d="M248.25,3.11s-86.9,2.25-143.46,67.18"/>
    <path class="cls-2" d="M168.76.48S93.88,22.46,53.88,81.92"/>
    <circle class="cls-1" cx="296.18" cy="70.29" r="46.65"/>
  </g>
  <g>
    <path class="cls-2" d="M302.51,125.04s-2.89,24.35-12.52,56.06c-11.4,37.56-32.25,85.44-68.94,115.42,0,0-49.14-111.85-93.82-121.32-17.8-3.78-119.73,121.32-119.73,121.32"/>
    <polyline class="cls-2" points="296.18 158.25 363.89 110.36 348.59 58.12"/>
    <path class="cls-2" d="M248.25,3.11s-86.9,2.25-143.46,67.18"/>
    <path class="cls-2" d="M168.76.48S93.88,22.46,53.88,81.92"/>
    <circle class="cls-2" cx="296.18" cy="70.29" r="46.65"/>
  </g>
</svg>